<svg width="1146" height="119" viewBox="0 0 1146 119" fill="none" xmlns="http://www.w3.org/2000/svg">
<g filter="url(#filter0_d_473_2843)">
<rect width="42.3455" height="68.5185" rx="5" transform="matrix(-1 0 0 1 1073 38.3704)" fill="#28282C"/>
<rect width="17.644" height="34.2593" rx="5" transform="matrix(-1 0 0 1 1060.3 7.53705)" fill="#28282C"/>
<rect width="24.7015" height="47.963" rx="5" transform="matrix(-1 0 0 1 1025.71 58.9259)" fill="#28282C"/>
<rect width="10.5864" height="34.2593" rx="5" transform="matrix(-1 0 0 1 1018.66 29.463)" fill="#28282C"/>
<rect width="24.7015" height="47.963" rx="5" transform="matrix(-1 0 0 1 1137.7 61.463)" fill="#28282C"/>
<rect width="10.5864" height="34.2593" rx="5" transform="matrix(-1 0 0 1 1130.64 32)" fill="#28282C"/>
<rect width="24.7015" height="47.963" rx="5" transform="matrix(-1 0 0 1 532.783 60.5766)" fill="#28282C"/>
<rect width="10.5864" height="34.2593" rx="5" transform="matrix(-1 0 0 1 525.725 31.1136)" fill="#28282C"/>
<rect width="28.2303" height="68.5185" rx="5" transform="matrix(-1 0 0 1 996.072 38.3704)" fill="#28282C"/>
<rect width="10.5864" height="41.1111" rx="5" transform="matrix(-1 0 0 1 986.898 0)" fill="#28282C"/>
<rect width="35.2879" height="68.5185" rx="5" transform="matrix(-1 0 0 1 962.902 38.3704)" fill="#28282C"/>
<rect width="17.644" height="34.2593" rx="5" transform="matrix(-1 0 0 1 953.727 24.6667)" fill="#28282C"/>
<rect width="21.1727" height="34.2593" rx="10" transform="matrix(-1 0 0 1 922.674 72.6296)" fill="#28282C"/>
<rect width="21.1727" height="34.2593" rx="10" transform="matrix(-1 0 0 1 922.674 38.3704)" fill="#28282C"/>
<rect width="21.1727" height="34.2593" rx="10" transform="matrix(-1 0 0 1 564.524 74.6229)" fill="#28282C"/>
<rect width="21.1727" height="34.2593" rx="10" transform="matrix(-1 0 0 1 564.524 40.3636)" fill="#28282C"/>
<rect width="28.2092" height="69.2848" rx="5" transform="matrix(-0.648631 0.761138 0.780792 0.624832 842.464 44.3029)" fill="#28282C"/>
<rect width="10.6004" height="41.654" rx="5" transform="matrix(-0.648479 0.76126 0.780668 0.62498 805.959 26.7386)" fill="#28282C"/>
<rect width="20.5556" height="35.2879" rx="10" transform="matrix(0 -1 -1 0 854.215 108.944)" fill="#28282C"/>
<rect width="24.7015" height="47.963" rx="5" transform="matrix(-1 0 0 1 799.166 60.9814)" fill="#28282C"/>
<rect width="10.5864" height="34.2593" rx="5" transform="matrix(-1 0 0 1 792.108 31.5185)" fill="#28282C"/>
<rect width="35.2879" height="68.5185" rx="5" transform="matrix(-1 0 0 1 769.524 40.4259)" fill="#28282C"/>
<rect width="17.644" height="34.2593" rx="5" transform="matrix(-1 0 0 1 760.349 26.7222)" fill="#28282C"/>
<rect width="28.2303" height="68.5185" rx="5" transform="matrix(-1 0 0 1 729.296 40.4259)" fill="#28282C"/>
<rect width="10.5864" height="41.1111" rx="5" transform="matrix(-1 0 0 1 720.121 2.05554)" fill="#28282C"/>
<rect width="23.9815" height="49.4031" rx="5" transform="matrix(0 -1 -1 0 665.778 108.944)" fill="#28282C"/>
<rect width="10.2778" height="35.2879" rx="5" transform="matrix(0 -1 -1 0 696.125 102.093)" fill="#28282C"/>
<rect width="42.3455" height="68.5185" rx="5" transform="matrix(-1 0 0 1 611.434 40.4259)" fill="#28282C"/>
<rect width="17.644" height="34.2593" rx="5" transform="matrix(-1 0 0 1 598.731 9.59259)" fill="#28282C"/>
<rect width="28.2303" height="68.5185" rx="5" transform="matrix(-1 0 0 1 1107.23 40.3704)" fill="#28282C"/>
<rect width="10.5864" height="41.1111" rx="5" transform="matrix(-1 0 0 1 1098.06 2)" fill="#28282C"/>
<rect y="38.3704" width="42.8861" height="68.5185" rx="5" fill="#28282C"/>
<rect x="12.8659" y="7.53705" width="17.8692" height="34.2593" rx="5" fill="#28282C"/>
<rect x="47.8894" y="58.9259" width="25.0169" height="47.963" rx="5" fill="#28282C"/>
<rect x="55.0371" y="29.463" width="10.7215" height="34.2593" rx="5" fill="#28282C"/>
<rect x="77.9097" y="38.3704" width="28.5907" height="68.5185" rx="5" fill="#28282C"/>
<rect x="87.2016" width="10.7215" height="41.1111" rx="5" fill="#28282C"/>
<rect x="111.504" y="38.3704" width="35.7384" height="68.5185" rx="5" fill="#28282C"/>
<rect x="120.796" y="24.6667" width="17.8692" height="34.2593" rx="5" fill="#28282C"/>
<rect x="152.246" y="72.6296" width="21.443" height="34.2593" rx="10" fill="#28282C"/>
<rect x="152.246" y="38.3704" width="21.443" height="34.2593" rx="10" fill="#28282C"/>
<rect width="28.3612" height="69.8242" rx="5" transform="matrix(0.653398 0.757065 -0.784648 0.620002 233.479 44.3029)" fill="#28282C"/>
<rect width="10.6575" height="41.9784" rx="5" transform="matrix(0.653244 0.757187 -0.784522 0.620148 270.45 26.7385)" fill="#28282C"/>
<rect x="221.578" y="108.944" width="20.5556" height="35.7384" rx="10" transform="rotate(-90 221.578 108.944)" fill="#28282C"/>
<rect x="277.33" y="60.9814" width="25.0169" height="47.963" rx="5" fill="#28282C"/>
<rect x="284.478" y="31.5185" width="10.7215" height="34.2593" rx="5" fill="#28282C"/>
<rect x="307.35" y="40.4259" width="35.7384" height="68.5185" rx="5" fill="#28282C"/>
<rect x="316.642" y="26.7222" width="17.8692" height="34.2593" rx="5" fill="#28282C"/>
<rect x="348.092" y="40.4259" width="28.5907" height="68.5185" rx="5" fill="#28282C"/>
<rect x="357.384" y="2.05554" width="10.7215" height="41.1111" rx="5" fill="#28282C"/>
<rect x="412.421" y="108.944" width="23.9815" height="50.0337" rx="5" transform="rotate(-90 412.421 108.944)" fill="#28282C"/>
<rect x="381.686" y="102.093" width="10.2778" height="35.7384" rx="5" transform="rotate(-90 381.686 102.093)" fill="#28282C"/>
<rect x="476.75" y="4.11108" width="10.7215" height="41.1111" rx="5" fill="#28282C"/>
<rect x="467.458" y="42.4814" width="28.5907" height="68.5185" rx="5" fill="#28282C"/>
</g>
<defs>
<filter id="filter0_d_473_2843" x="0" y="0" width="1145.7" height="119" filterUnits="userSpaceOnUse" color-interpolation-filters="sRGB">
<feFlood flood-opacity="0" result="BackgroundImageFix"/>
<feColorMatrix in="SourceAlpha" type="matrix" values="0 0 0 0 0 0 0 0 0 0 0 0 0 0 0 0 0 0 127 0" result="hardAlpha"/>
<feOffset dx="4" dy="4"/>
<feGaussianBlur stdDeviation="2"/>
<feComposite in2="hardAlpha" operator="out"/>
<feColorMatrix type="matrix" values="0 0 0 0 0 0 0 0 0 0.611765 0 0 0 0 0.509804 0 0 0 0.2 0"/>
<feBlend mode="normal" in2="BackgroundImageFix" result="effect1_dropShadow_473_2843"/>
<feBlend mode="normal" in="SourceGraphic" in2="effect1_dropShadow_473_2843" result="shape"/>
</filter>
</defs>
</svg>
